<svg xmlns="http://www.w3.org/2000/svg" viewBox="0 0 1600 900" role="img" aria-labelledby="title desc">
  <title id="title">Constellation Cover</title>
  <desc id="desc">A violet slate cover with stars and geometry lines.</desc>
  <defs>
    <linearGradient id="bg" x1="0" y1="0" x2="1" y2="1">
      <stop offset="0%" stop-color="#06070f"/>
      <stop offset="58%" stop-color="#31355f"/>
      <stop offset="100%" stop-color="#a276b7"/>
    </linearGradient>
  </defs>
  <rect width="1600" height="900" fill="url(#bg)"/>
  <g fill="rgba(255,255,255,0.85)">
    <circle cx="220" cy="160" r="4"/><circle cx="430" cy="210" r="4"/><circle cx="610" cy="130" r="4"/>
    <circle cx="880" cy="220" r="4"/><circle cx="1120" cy="150" r="4"/><circle cx="1320" cy="260" r="4"/>
    <circle cx="990" cy="420" r="4"/><circle cx="1240" cy="470" r="4"/><circle cx="1430" cy="360" r="4"/>
  </g>
  <g stroke="rgba(255,255,255,0.24)" stroke-width="2" fill="none">
    <path d="M220 160L430 210 610 130 880 220 1120 150 1320 260"/>
    <path d="M880 220L990 420 1240 470 1430 360"/>
  </g>
  <circle cx="1240" cy="520" r="210" fill="rgba(255,255,255,0.08)"/>
  <text x="128" y="610" fill="#f8f3ff" font-size="120" font-family="Georgia, serif" letter-spacing="10">CONSTELLATION</text>
  <text x="132" y="690" fill="rgba(248,243,255,0.82)" font-size="28" font-family="Verdana, sans-serif" letter-spacing="5">THEORY  PRACTICE  CONNECTION</text>
  <text x="132" y="786" fill="rgba(248,243,255,0.72)" font-size="24" font-family="Consolas, monospace">rank, basis, graph, proof</text>
</svg>
