<svg xmlns="http://www.w3.org/2000/svg" viewBox="0 0 1600 900" role="img" aria-labelledby="title desc">
  <title id="title">Wave Cover</title>
  <desc id="desc">A blue-green cover with waves and code-like lines.</desc>
  <defs>
    <linearGradient id="bg" x1="0" y1="0" x2="1" y2="1">
      <stop offset="0%" stop-color="#07131f"/>
      <stop offset="48%" stop-color="#0e4f5d"/>
      <stop offset="100%" stop-color="#6fd0b8"/>
    </linearGradient>
  </defs>
  <rect width="1600" height="900" fill="url(#bg)"/>
  <path d="M0 640C200 560 320 690 540 650s310-250 520-230 340 180 540 110V900H0Z" fill="rgba(255,255,255,0.10)"/>
  <path d="M0 720C260 640 360 760 560 736s294-180 510-170 300 136 530 104V900H0Z" fill="rgba(0,0,0,0.18)"/>
  <path d="M100 190c150 35 250 85 385 80s242-68 360-62 230 70 362 64 212-58 292-46" fill="none" stroke="rgba(255,255,255,0.30)" stroke-width="4" stroke-linecap="round"/>
  <path d="M130 286h240M130 320h380M130 354h290" stroke="rgba(255,255,255,0.22)" stroke-width="10" stroke-linecap="round"/>
  <text x="126" y="514" fill="#f1fffb" font-size="122" font-family="Georgia, serif" letter-spacing="9">WAVEFORM</text>
  <text x="132" y="596" fill="rgba(241,255,251,0.82)" font-size="30" font-family="Verdana, sans-serif" letter-spacing="4">ALGORITHM  PRACTICE  MEMORY</text>
  <text x="1138" y="790" fill="rgba(241,255,251,0.78)" font-size="24" font-family="Consolas, monospace">while (!done) solve();</text>
</svg>
